<svg width="354" height="354" viewBox="0 0 354 354" fill="none" xmlns="http://www.w3.org/2000/svg">
<path d="M227.736 1.00488C258.877 1.39913 284 26.7656 284 58V231C284 262.48 258.48 288 227 288C227 288 218.33 288 209 288C199.67 288 198.67 278 209 278C219.33 278 227 278 227 278C252.957 278 274 256.957 274 231V58C274 32.0426 252.957 11 227 11H128C102.043 11 81 32.0426 81 58V231C81 232.008 81.0195 224.505 81.0947 234C81.1699 243.495 71 242.495 71.0781 234C71.1562 225.505 71 232.006 71 231V58C71 26.7656 96.1228 1.39912 127.264 1.00488L128 1H227L227.736 1.00488Z" fill="url(#paint0_radial_68_148)"/>
<path fill-rule="evenodd" clip-rule="evenodd" d="M155.356 81.4947C155.689 81.6155 156.021 81.7357 156.68 81.9751C156.025 81.7374 155.686 81.6146 155.356 81.4947ZM152.644 80.4912C152.963 80.6117 153.292 80.7358 153.611 80.8562C153.289 80.7349 152.967 80.6134 152.644 80.4912Z" fill="url(#paint1_linear_68_148)"/>
<path fill-rule="evenodd" clip-rule="evenodd" d="M152.644 80.4912C152.996 80.6242 153.346 80.7564 153.696 80.8883C153.354 80.7594 153.012 80.6302 152.668 80.5002L152.644 80.4912ZM155.356 81.4947C155.684 81.6139 156.029 81.7389 156.68 81.9751C156.028 81.7384 155.696 81.6182 155.367 81.4988L155.356 81.4947Z" fill="url(#paint2_linear_68_148)"/>
<path fill-rule="evenodd" clip-rule="evenodd" d="M191.314 143.059L191.403 142.826L191.777 141.847L192.76 142.142C195.635 143.003 197.828 143.66 199.535 144.246C201.258 144.838 202.547 145.379 203.59 146.022C205.698 147.321 206.677 148.98 208.323 151.77L208.405 151.908L208.448 151.981L208.478 152.06C210.639 157.73 211.138 162.756 210.574 168.724L210.269 172.271L210.267 172.304L210.262 172.336C208.777 182.109 205.28 191.273 201.82 200.339L201.814 200.354C201.624 200.853 201.434 201.352 201.244 201.85L200.398 204.074C193.03 223.32 184.491 242.249 172.479 259.198C170.415 262.236 168.715 265.302 167.024 268.576L168.022 269.362L168.072 269.402L168.117 269.447C172.403 273.812 175.562 278.295 176.74 284.525L176.767 284.669L176.751 284.815C176.231 289.792 174.673 293.889 172.699 298.32L172.145 299.565L171.124 298.662C167.042 295.057 164.216 291.457 161.463 286.798C160.259 284.88 158.921 283.105 157.502 281.319L156.478 283.036C150.911 292.194 144.895 300.93 138.485 309.504L136.329 312.402C131.361 318.979 126.035 325.119 120.477 331.166C119.542 332.217 118.475 333.47 117.637 334.465C117.218 334.963 116.856 335.395 116.601 335.703C116.473 335.856 116.372 335.979 116.302 336.063L116.223 336.159L116.21 336.176L116.203 336.184L116.196 336.192L116.17 336.224L116.142 336.253C116.142 336.253 116.136 336.258 116.134 336.26C116.129 336.266 116.121 336.274 116.111 336.284L115.713 336.694C115.451 336.962 115.093 337.33 114.709 337.72C113.95 338.492 113.061 339.385 112.626 339.784C112.372 340.016 112.113 340.261 111.848 340.511C111.299 341.029 110.725 341.57 110.124 342.078C103.82 347.406 98.5511 350.057 91.3714 353.57L90.9808 353.761L88.8506 352.948L89.0167 352.118C91.5048 339.724 98.358 333.749 107.308 326.537L109.126 325.076C114.633 320.642 118.943 315.798 123.278 310.128L123.288 310.117L126.042 306.626C134.328 296.048 140.478 285.28 145.903 273.043L145.844 273.021L145.252 274.138L145.244 274.155C141.643 280.651 137.488 286.118 132.593 291.637C130.824 293.64 129.188 295.659 127.569 297.787L127.56 297.799L127.551 297.81C124.235 301.912 120.287 305.427 116.42 308.87C115.676 309.532 114.935 310.192 114.202 310.852C111.747 313.07 109.379 315.344 107.07 317.713C104.7 320.133 102.301 322.461 99.3864 324.407L98.9571 324.694L95.8342 323.501L95.9774 322.689C96.8657 317.655 97.5377 313.85 98.1849 310.888C98.8316 307.929 99.4673 305.747 100.305 303.98C101.992 300.416 104.455 298.66 108.846 295.529L108.99 295.426C119.474 287.818 128.848 277.822 135.533 266.752L135.544 266.735L135.554 266.719C135.889 266.21 136.225 265.701 136.562 265.188L137.606 263.604C140.269 258.609 141.78 255.146 140.42 249.842C138.161 243.772 135.224 238.067 132.177 232.279L132.171 232.269L132.165 232.259C130.09 228.09 128.582 223.783 127.081 219.468L125.484 215.274C118.404 196.476 116.417 180.171 118.478 160.127L118.605 158.118L118.608 158.063L118.618 158.009C122.625 135.153 140.173 118.843 156.313 104.398C159.852 101.155 161.479 98.4342 163.304 93.9453L163.308 93.9352L164.637 90.7704C164.884 90.0444 165.054 89.5435 165.161 89.1442C165.266 88.7477 165.288 88.5248 165.277 88.3585C165.253 88.013 165.091 87.6899 164.399 86.5294C163.541 85.4572 162.877 84.814 162.145 84.3203C161.391 83.8116 160.515 83.4264 159.167 82.9247L156.68 81.9751C156.025 81.7374 155.686 81.6146 155.356 81.4947C155.019 81.3728 154.677 81.2489 153.998 81.0021L153.986 80.9976C153.548 80.8324 153.109 80.6669 152.668 80.5002L152.644 80.4912L152.63 80.486C152.169 80.3121 151.705 80.1369 151.234 79.9592C148.441 78.91 145.64 77.8798 142.836 76.8484L142.527 76.7348C140.558 75.999 138.585 75.259 136.617 74.5206C131.797 72.7156 126.971 70.929 122.14 69.1505L120.807 68.6591L121.85 67.4144C123.344 65.6305 124.237 64.5643 125.226 63.8969C126.257 63.202 127.366 62.9537 129.086 62.5689L129.239 62.5347L129.309 62.5194L129.543 62.5007C140.891 61.5994 146.712 61.1371 150.84 61.4682C155.068 61.8074 157.557 62.9839 162.181 65.1696L163.09 65.5994L161.612 69.4703L161.457 69.6225C161.198 69.8781 160.895 69.9192 160.755 69.9261C160.609 69.9333 160.485 69.9115 160.419 69.8981C160.288 69.8713 160.131 69.8212 160.019 69.785L159.942 69.7605C159.692 69.68 159.368 69.5755 158.926 69.465C157.047 68.9953 155.893 68.9954 154.689 69.0199L154.666 69.0204L154.643 69.0201L154.526 69.0171C153.566 68.9926 152.682 68.97 151.633 69.0194L151.616 69.0202L151.598 69.0197C149.268 69.0485 147.213 69.5186 145.827 70.5656L145.855 70.583C145.885 70.6022 145.917 70.6221 145.95 70.642C146.511 70.9748 147.302 71.3421 148.162 71.6927C149.015 72.0401 149.902 72.3584 150.634 72.5978C151.4 72.8481 151.913 72.9838 152.062 73.0052L152.077 73.0068L152.092 73.0092C153.889 73.3198 155.525 73.5994 157.018 73.854L157.621 73.9568C164.115 75.0639 167.798 75.692 170.186 76.3918C171.725 76.8429 172.796 77.3417 173.765 78.0469C174.47 78.5602 175.103 79.1712 175.804 79.8959L176.533 80.6596L176.598 80.7282L176.65 80.8087L176.74 80.949C178.403 83.5414 179.316 84.9643 179.808 86.1205C180.21 87.0678 180.335 87.8481 180.408 88.8417L180.471 89.9199L180.479 90.0692L180.443 90.2154C177.299 102.827 168.335 109.272 158.834 116.102C158.201 116.557 157.562 117.016 156.926 117.477C141.136 129.159 131.461 141.796 128.011 161.506C127.496 166.347 127.761 170.969 128.483 175.704C129.364 173.314 130.251 170.926 131.139 168.541L132.239 165.519C135.214 157.581 138.85 151.559 143.659 146.577C148.461 141.601 154.393 137.699 161.9 133.922L161.918 133.912L161.937 133.904C169.22 130.611 176.712 127.984 184.281 125.561C196.936 121.409 207.232 114.787 213.369 102.749C214.215 100.853 214.988 98.9449 215.728 96.996L216.518 94.9195C219.135 87.5964 219.193 81.3207 216.889 73.8794L216.229 71.75L218.259 72.6735C223.756 75.1761 227.374 78.2915 230.315 83.5515L230.598 84.0672L230.635 84.1359L230.661 84.2106C233.023 90.9697 231.017 96.8678 228.461 102.903L228.447 102.937L228.431 102.97C219.702 119.955 203.12 129.058 185.852 134.784L185.839 134.789C183.687 135.469 181.532 136.143 179.375 136.808C165.793 141.075 155.805 148.848 148.405 161.176C142.663 172.387 140.125 182.759 139.224 195.253L139.223 195.269L138.923 198.69L138.868 199.57C137.862 217.775 144.766 236.541 155.054 251.569L155.555 252.294L155.564 252.308L156.738 254.052C158.116 256.06 159.356 257.623 161.03 259.143L161.349 258.488C163.458 254.177 165.578 249.869 167.73 245.575C173.281 234.36 178.159 222.958 182.659 211.276L183.452 209.243C188.094 197.292 190.792 185.935 191.449 173.152L191.616 170.154C191.95 162.932 191.594 156.043 190.598 148.883L190.593 148.841L190.582 148.729C190.453 147.405 190.372 146.574 190.488 145.744C190.596 144.97 190.873 144.216 191.314 143.059Z" fill="url(#paint3_linear_68_148)"/>
<path d="M249.237 45.2468C250.044 45.9083 250.851 46.5697 251.682 47.2512C250.687 50.8499 249.747 52.6684 246.967 55.2184C242.692 57.5694 238.51 58.8178 233.668 57.882C231.533 57.2075 229.469 56.4327 227.39 55.6033C226.244 55.1773 226.244 55.1773 225.076 54.7427C221.839 53.5377 218.618 52.2903 215.395 51.0465C213.027 50.1396 210.651 49.2549 208.275 48.3708C207.561 48.0863 206.848 47.8017 206.113 47.5086C200.343 45.3661 194.822 44.9847 189.007 47.308C182.239 50.8652 179.518 55.7269 176.333 62.3654C172.915 61.4892 171.818 60.8063 169.762 57.849C167.987 54.167 168.074 53.3282 169.081 49.2935C171.118 44.2641 174.638 42.1085 179.51 40.0292C193.334 35.7058 205.696 41.0998 218.635 45.9988C227.823 49.4569 235.368 51.7771 244.873 48.2637C247.533 46.9276 247.533 46.9276 249.237 45.2468Z" fill="#1F6BB8"/>
<path d="M253.956 46.5299L253.61 47.7848C253.095 49.6457 252.557 51.1897 251.725 52.6295C250.885 54.0829 249.804 55.3302 248.319 56.6925L248.142 56.8549L247.931 56.9707C243.42 59.4513 238.752 60.9014 233.288 59.8455L233.175 59.8242L233.065 59.7895C230.873 59.0969 228.766 58.3052 226.67 57.4698L224.378 56.6175C221.127 55.4077 217.894 54.1548 214.676 52.9128C212.32 52.0103 209.953 51.1297 207.577 50.2456L207.533 50.2289C206.827 49.9473 206.121 49.6655 205.394 49.3755C200.026 47.3862 195.065 47.0723 189.85 49.1264C183.753 52.3596 181.274 56.69 178.135 63.2308L177.425 64.7105L175.836 64.3033C174.091 63.8561 172.676 63.399 171.414 62.5436C170.143 61.6823 169.185 60.5245 168.119 58.9908L168.028 58.8611L167.959 58.7178C167.063 56.858 166.482 55.4233 166.382 53.8294C166.285 52.2891 166.654 50.7583 167.141 48.8089L167.175 48.6734L167.227 48.5428C169.563 42.7717 173.692 40.3376 178.724 38.1898L178.817 38.1508L178.913 38.1207C193.528 33.55 206.609 39.3074 219.339 44.1271C228.455 47.5582 235.362 49.6106 244.081 46.4219C245.388 45.7654 245.884 45.5104 246.276 45.2395C246.648 44.9822 246.942 44.7005 247.831 43.823L249.111 42.5589L253.956 46.5299Z" fill="#F8DF22"/>
<path d="M258.903 60.6423L257.971 62.5978C256.761 65.1368 255.545 67.2478 253.941 69.086C252.324 70.9392 250.386 72.4341 247.824 73.8493L247.664 73.9386L247.489 73.9963C244.893 74.8621 242.474 75.3061 240.009 75.2123C237.54 75.1183 235.137 74.4892 232.567 73.3541L232.499 73.3252L232.435 73.2903C228.682 71.2959 225.14 69.032 221.675 66.7103L220.352 65.8233L222.26 60.8266L226.197 61.7689C235.041 63.7425 243.365 65.0412 251.321 61.7069C252.228 61.0617 253.138 60.4159 254.073 59.7513L254.945 59.1311L258.903 60.6423Z" fill="#F8DF22"/>
<defs>
<radialGradient id="paint0_radial_68_148" cx="0" cy="0" r="1" gradientUnits="userSpaceOnUse" gradientTransform="translate(120.169 99.9951) rotate(61.4377) scale(237.391 176.182)">
<stop stop-color="#D01910"/>
<stop offset="1" stop-color="#C676FF"/>
</radialGradient>
<linearGradient id="paint1_linear_68_148" x1="231.712" y1="139.177" x2="2.66893" y2="373.995" gradientUnits="userSpaceOnUse">
<stop stop-color="#FFD6D6"/>
<stop offset="1" stop-color="#0065FC"/>
</linearGradient>
<linearGradient id="paint2_linear_68_148" x1="231.712" y1="139.177" x2="2.66893" y2="373.995" gradientUnits="userSpaceOnUse">
<stop stop-color="#FFD6D6"/>
<stop offset="1" stop-color="#0065FC"/>
</linearGradient>
<linearGradient id="paint3_linear_68_148" x1="231.712" y1="139.177" x2="2.66893" y2="373.995" gradientUnits="userSpaceOnUse">
<stop stop-color="#FFD6D6"/>
<stop offset="1" stop-color="#0065FC"/>
</linearGradient>
</defs>
</svg>
